<svg width="15" height="16" viewBox="0 0 15 16" fill="none" xmlns="http://www.w3.org/2000/svg">
<path fill-rule="evenodd" clip-rule="evenodd" d="M0.706956 1.63582C1.09748 1.24529 1.73064 1.24529 2.12117 1.63582L13.4349 12.9495C13.8254 13.34 13.8254 13.9732 13.4349 14.3637C13.0444 14.7543 12.4112 14.7543 12.0207 14.3637L0.706956 3.05003C0.316431 2.65951 0.316431 2.02634 0.706956 1.63582Z" fill="#1064E5"/>
<path fill-rule="evenodd" clip-rule="evenodd" d="M13.4356 1.63582C13.0451 1.24529 12.4119 1.24529 12.0214 1.63582L0.707701 12.9495C0.317177 13.34 0.317176 13.9732 0.707701 14.3637C1.09822 14.7543 1.73139 14.7543 2.12191 14.3637L13.4356 3.05003C13.8261 2.65951 13.8261 2.02634 13.4356 1.63582Z" fill="#1064E5"/>
</svg>
