<svg width="92" height="28" viewBox="0 0 92 28" xmlns="http://www.w3.org/2000/svg">
<path d="M50.4119 4.59473C50.9473 4.59473 51.3867 4.75947 51.7299 5.08896C52.0731 5.40473 52.2447 5.81659 52.2447 6.32456C52.2447 6.83253 52.0731 7.25126 51.7299 7.58075C51.3867 7.91024 50.9473 8.07499 50.4119 8.07499C49.8902 8.07499 49.4509 7.91024 49.0939 7.58075C48.7507 7.25126 48.5791 6.83253 48.5791 6.32456C48.5791 5.83032 48.7507 5.41846 49.0939 5.08896C49.4509 4.75947 49.8902 4.59473 50.4119 4.59473ZM48.9292 21.1517V9.82542H51.874V21.1517H48.9292Z" fill="currentColor"/>
<path d="M61.9357 9.82598H64.8805V21.0081C64.8805 22.6831 64.3725 24.0216 63.3566 25.0238C62.3407 26.0398 60.9815 26.5477 59.2791 26.5477C57.8101 26.5477 56.5333 26.177 55.4488 25.4357C54.3779 24.6943 53.7395 23.6166 53.5336 22.2025H56.5814C56.8834 23.3558 57.7552 23.9324 59.1967 23.9324C61.0227 23.9324 61.9357 22.9851 61.9357 21.0905V19.4636C61.057 20.6443 59.8695 21.2347 58.373 21.2347C56.8903 21.2347 55.6547 20.6855 54.6662 19.5872C53.6915 18.4889 53.2041 17.0954 53.2041 15.4068C53.2041 13.7181 53.6983 12.3246 54.6868 11.2263C55.6753 10.128 56.904 9.57886 58.373 9.57886C59.8832 9.57886 61.0707 10.1829 61.9357 11.3911V9.82598ZM59.032 18.434C59.8695 18.434 60.5628 18.1525 61.1119 17.5896C61.6611 17.0268 61.9357 16.2991 61.9357 15.4068C61.9357 14.5281 61.6542 13.8073 61.0913 13.2445C60.5422 12.6679 59.8557 12.3795 59.032 12.3795C58.2083 12.3795 57.5218 12.6679 56.9727 13.2445C56.4372 13.8073 56.1695 14.5281 56.1695 15.4068C56.1695 16.2854 56.4372 17.013 56.9727 17.5896C57.5218 18.1525 58.2083 18.434 59.032 18.434Z" fill="currentColor"/>
<path d="M41.4963 15.418C40.4392 15.1984 39.588 14.9787 38.9427 14.759C38.2975 14.5394 37.7071 14.2579 37.1717 13.9147C36.6363 13.5852 36.2587 13.1734 36.0391 12.6791C35.8057 12.1849 35.689 11.5877 35.689 10.8875C35.689 10.0912 35.8606 9.38419 36.2038 8.76639C36.5333 8.16232 36.9795 7.69554 37.5424 7.36605C38.0915 7.03656 38.675 6.78944 39.2928 6.62469C39.8969 6.45995 40.5215 6.37757 41.1668 6.37757C43.13 6.37757 44.6265 6.83749 45.6561 7.75732C46.6721 8.69089 47.2693 9.85784 47.4478 11.2582L44.4823 11.2582C44.2764 10.5168 43.9263 9.97453 43.4321 9.63131C42.9241 9.28809 42.1759 9.11648 41.1874 9.11648C40.3637 9.11648 39.739 9.26063 39.3134 9.54894C38.8741 9.83724 38.6544 10.2422 38.6544 10.7639C38.6544 11.0934 38.778 11.3543 39.0251 11.5465C39.2585 11.7524 39.5468 11.9034 39.89 11.9995C40.2332 12.0956 40.8442 12.2398 41.7228 12.432C41.7915 12.4457 41.8464 12.4526 41.8876 12.4526C41.915 12.4663 41.9631 12.48 42.0317 12.4938C42.0866 12.5075 42.1416 12.5212 42.1965 12.535C42.9378 12.686 43.5625 12.8507 44.0705 13.0292C44.5784 13.2077 45.0795 13.4548 45.5738 13.7706C46.068 14.0863 46.4455 14.4913 46.7064 14.9856C46.9535 15.4798 47.0771 16.0701 47.0771 16.7566C47.0771 18.1844 46.5416 19.2964 45.4708 20.0927C44.3999 20.889 43.1232 21.2871 41.6404 21.2871C39.8282 21.2871 38.4554 20.8684 37.5218 20.0309C36.5745 19.2072 36.0116 18.1363 35.8331 16.8184L38.8192 16.8184C39.1761 17.9716 40.1097 18.5482 41.6199 18.5482C42.4573 18.5482 43.082 18.3903 43.4938 18.0746C43.9057 17.7725 44.1116 17.3744 44.1116 16.8801C44.1116 16.482 43.94 16.1937 43.5968 16.0152C43.2399 15.8368 42.5397 15.6377 41.4963 15.418Z" fill="currentColor"/>
<path fill-rule="evenodd" clip-rule="evenodd" d="M77.9261 10.7313C77.1984 9.935 76.1962 9.53687 74.9194 9.53687C73.4667 9.53687 72.3181 10.0997 71.4734 11.2253V9.8197H71.398V9.78399H68.4532V9.8197H66.2437V12.4346H68.4532V21.1103H71.398V15.1588C71.398 13.278 72.2492 12.3376 73.9516 12.3376C74.7066 12.3376 75.2489 12.5298 75.5784 12.9142C75.9079 13.2986 76.0727 13.8752 76.0727 14.644V21.1103H79.0175V14.0056C79.0175 12.619 78.6537 11.5275 77.9261 10.7313Z" fill="currentColor"/>
<path fill-rule="evenodd" clip-rule="evenodd" d="M91.1518 9.82495H88.207V15.7764C88.207 16.6962 87.9873 17.3964 87.548 17.8769C87.1224 18.3574 86.5046 18.5977 85.6946 18.5977C84.9533 18.5977 84.4178 18.4055 84.0884 18.0211C83.7726 17.6367 83.6147 17.0601 83.6147 16.2912V9.82495H80.6699V16.9296C80.6699 18.3025 81.0268 19.394 81.7407 20.204C82.4683 21.0002 83.4568 21.3984 84.7062 21.3984C86.1751 21.3984 87.3421 20.7943 88.207 19.5862V21.1513H88.2072V21.4367C88.2072 22.2895 88.0098 22.9075 87.6193 23.3126C87.2296 23.717 86.6364 23.9292 85.8173 23.9292C85.17 23.9292 84.6638 23.7997 84.2887 23.5515C83.9158 23.3049 83.6613 22.9339 83.5289 22.4281L83.5061 22.3411H80.4834L80.5028 22.4744C80.696 23.8011 81.2976 24.8207 82.31 25.5216L82.3106 25.522C83.3279 26.2174 84.5237 26.5633 85.8929 26.5633C87.4804 26.5633 88.7599 26.0887 89.7184 25.1303C90.6769 24.1846 91.1518 22.9239 91.1518 21.3611V21.1513H91.1518V9.82495Z" fill="currentColor"/>
<path d="M0 6.94558C0 3.10964 3.10964 0 6.94558 0H21.0544C24.8904 0 28 3.10964 28 6.94558V21.0544C28 24.8904 24.8904 28 21.0544 28H6.94558C3.10964 28 0 24.8904 0 21.0544V6.94558Z" fill="#1064E5"/>
<path fill-rule="evenodd" clip-rule="evenodd" d="M21.7467 22.0355C19.7697 23.8477 17.2642 24.7538 14.2301 24.7538C11.0176 24.7538 8.38163 23.7516 6.32231 21.7472C4.27671 19.7565 3.25391 17.1617 3.25391 13.9629C3.25391 10.7778 4.24925 8.19678 6.23993 6.21983C8.24434 4.24287 10.8254 3.25439 13.983 3.25439C15.603 3.25439 17.0651 3.52897 18.3694 4.07813L17.8545 6.48754C16.7562 5.97957 15.4932 5.72559 14.0654 5.72559C11.6354 5.72559 9.66528 6.46008 8.15511 7.92907C6.65866 9.39806 5.91044 11.4162 5.91044 13.9835C5.91044 16.5371 6.67926 18.5552 8.21689 20.0379C9.76825 21.5344 11.7933 22.2826 14.2919 22.2826C15.3902 22.2826 16.3924 22.1247 17.2985 21.8089C18.2184 21.5069 19.0352 21.0401 19.7491 20.4086C20.4768 19.7908 21.0396 18.9602 21.4378 17.9168C21.6471 17.3864 21.8033 16.8135 21.9062 16.1979C22.0315 15.0154 22.109 13.8208 21.9039 12.8939C21.7938 12.3961 21.6265 12.1015 21.4517 11.9334C21.303 11.7903 21.0413 11.6325 20.4861 11.6217C19.5007 11.6025 18.4021 12.2273 17.282 13.3996C16.1965 14.5357 15.2824 15.9801 14.7218 17.0675C14.5035 17.4909 14.3526 17.8396 14.3526 17.8396L14.295 17.7813L14.2946 17.782L9.8291 13.289L11.7192 11.3989L13.8096 13.4436C14.2638 12.7992 14.7799 12.149 15.3494 11.553C16.6347 10.2078 18.4146 8.90778 20.5382 8.94921C21.6513 8.97092 22.5943 9.32335 23.305 10.0072C23.9896 10.6659 24.3365 11.515 24.5138 12.3165C24.6536 12.9482 24.7028 13.6266 24.7026 14.2924H24.7121V14.6425C24.7121 15.4428 24.6469 16.2001 24.5165 16.9144L24.5131 16.9447L24.511 16.9444C24.1303 18.9981 23.2088 20.6952 21.7467 22.0355Z" fill="#ffffff"/>
</svg>
