<svg width="42" height="42" viewBox="0 0 42 42" fill="none" xmlns="http://www.w3.org/2000/svg">
<g clip-path="url(#clip0_36_494)">
<path d="M18.3753 24.6184C18.3753 26.0657 19.5528 27.2431 21 27.2431C22.4473 27.2431 23.6247 26.0657 23.6247 24.6184C23.6247 24.2562 23.331 23.9625 22.9688 23.9625C22.6066 23.9625 22.3129 24.2562 22.3129 24.6184C22.3129 25.3424 21.724 25.9313 21 25.9313C20.2761 25.9313 19.6871 25.3424 19.6871 24.6184C19.6871 24.4831 19.7078 24.3524 19.746 24.2295C19.7686 24.1951 19.7893 24.159 19.8056 24.1195C19.8214 24.0813 19.8328 24.0424 19.841 24.0033C20.062 23.5887 20.4984 23.3056 21.0001 23.3056C21.3623 23.3056 21.656 23.012 21.656 22.6497C21.656 22.2875 21.3623 21.9938 21.0001 21.9938C20.1454 21.9938 19.385 22.4047 18.9055 23.039L8.90947 18.9179C8.57447 18.7797 8.19109 18.9394 8.0531 19.2743C7.91503 19.6092 8.07458 19.9926 8.40951 20.1307L18.4018 24.2503C18.3847 24.3706 18.3753 24.4934 18.3753 24.6184Z" fill="#1064E5" stroke="#1064E5" stroke-width="0.5"/>
<path d="M35.8492 9.7694C31.8829 5.80306 26.6093 3.61865 21 3.61865C15.3907 3.61865 10.1172 5.80306 6.15075 9.7694C2.18433 13.7357 0 19.0093 0 24.6186C0 28.7262 1.19039 32.7085 3.44236 36.1352C3.56837 36.3269 3.77761 36.431 3.9911 36.431C4.11474 36.431 4.23969 36.396 4.3507 36.3232C4.6534 36.1242 4.73752 35.7175 4.53862 35.4148C3.97839 34.5625 3.48909 33.6731 3.07128 32.7549L4.88067 32.0053C5.21535 31.8667 5.37433 31.483 5.23568 31.1483C5.09704 30.8136 4.71325 30.6548 4.37866 30.7933L2.56803 31.5433C1.81637 29.546 1.39429 27.4325 1.32304 25.2744H3.28092C3.64314 25.2744 3.93683 24.9807 3.93683 24.6185C3.93683 24.2563 3.64314 23.9626 3.28092 23.9626H1.32378C1.39445 21.7893 1.81587 19.6771 2.56106 17.6909L4.37866 18.4438C4.46073 18.4778 4.54575 18.4938 4.62946 18.4938C4.88682 18.4938 5.13107 18.3413 5.23568 18.0888C5.37433 17.7542 5.21535 17.3704 4.88067 17.2318L3.06308 16.4789C3.9406 14.5474 5.13615 12.7559 6.623 11.1691L8.00697 12.5531C8.13503 12.6811 8.30286 12.7452 8.47077 12.7452C8.63868 12.7452 8.80651 12.6811 8.93458 12.5531C9.19079 12.2969 9.19079 11.8817 8.93458 11.6255L7.55062 10.2416C9.13742 8.7548 10.9289 7.55925 12.8604 6.68165L13.6133 8.49924C13.7179 8.75185 13.9622 8.90427 14.2195 8.90427C14.3032 8.90427 14.3883 8.8882 14.4703 8.85417C14.805 8.71553 14.964 8.33182 14.8253 7.99715L14.0725 6.17955C16.0587 5.43436 18.1709 5.01294 20.3442 4.94227V6.89941C20.3442 7.26163 20.6379 7.55531 21.0001 7.55531C21.3623 7.55531 21.656 7.26163 21.656 6.89941V4.94243C23.8294 5.01311 25.9416 5.43453 27.9278 6.17972L27.1749 7.99731C27.0363 8.33199 27.1952 8.71569 27.5299 8.85433C27.612 8.88836 27.697 8.90443 27.7807 8.90443C28.0381 8.90443 28.2823 8.75193 28.3869 8.49941L29.1398 6.68181C31.0713 7.55933 32.8628 8.75488 34.4495 10.2417L33.0656 11.6257C32.8094 11.8818 32.8094 12.2971 33.0656 12.5532C33.1937 12.6813 33.3615 12.7453 33.5294 12.7453C33.6973 12.7453 33.8651 12.6813 33.9932 12.5532L35.3772 11.1693C36.8639 12.7561 38.0595 14.5476 38.9371 16.4791L37.1195 17.232C36.7848 17.3706 36.6258 17.7543 36.7645 18.089C36.8691 18.3416 37.1133 18.494 37.3707 18.494C37.4544 18.494 37.5394 18.4779 37.6215 18.4439L39.4391 17.691C40.1843 19.6773 40.6057 21.7894 40.6764 23.9628H38.7192C38.357 23.9628 38.0633 24.2565 38.0633 24.6187C38.0633 24.9809 38.357 25.2746 38.7192 25.2746H40.677C40.6059 27.4327 40.1837 29.5462 39.4321 31.5435L37.6214 30.7935C37.2868 30.6551 36.9031 30.8138 36.7644 31.1485C36.6258 31.4831 36.7847 31.8669 37.1194 32.0055L38.9288 32.755C38.511 33.6733 38.0217 34.5626 37.4615 35.415C37.2625 35.7177 37.3467 36.1243 37.6494 36.3233C37.952 36.5221 38.3587 36.4381 38.5577 36.1354C40.8098 32.7088 42.0001 28.7264 42.0001 24.6188C42 19.0093 39.8156 13.7357 35.8492 9.7694Z" fill="#1064E5" stroke="#1064E5" stroke-width="0.5"/>
<path d="M26.8922 31.8228H15.0859C14.0009 31.8228 13.1182 32.7055 13.1182 33.7905V36.4141C13.1182 37.4991 14.0009 38.3818 15.0859 38.3818H26.8922C27.9771 38.3818 28.8599 37.4991 28.8599 36.4141V33.7905C28.8599 32.7054 27.9771 31.8228 26.8922 31.8228ZM27.5481 36.4141C27.5481 36.7758 27.2538 37.07 26.8922 37.07H15.0859C14.7242 37.07 14.43 36.7758 14.43 36.4141V33.7905C14.43 33.4288 14.7242 33.1346 15.0859 33.1346H26.8922C27.2538 33.1346 27.5481 33.4288 27.5481 33.7905V36.4141Z" fill="#1064E5" stroke="#1064E5" stroke-width="0.5"/>
<path d="M21.645 34.4463H20.3332C19.9709 34.4463 19.6772 34.74 19.6772 35.1022C19.6772 35.4644 19.9709 35.7581 20.3332 35.7581H21.645C22.0072 35.7581 22.3009 35.4644 22.3009 35.1022C22.3009 34.74 22.0072 34.4463 21.645 34.4463Z" fill="#1064E5" stroke="#1064E5" stroke-width="0.5"/>
<path d="M18.3652 34.4463H17.0534C16.6911 34.4463 16.3975 34.74 16.3975 35.1022C16.3975 35.4644 16.6911 35.7581 17.0534 35.7581H18.3652C18.7274 35.7581 19.0211 35.4644 19.0211 35.1022C19.0211 34.74 18.7274 34.4463 18.3652 34.4463Z" fill="#1064E5" stroke="#1064E5" stroke-width="0.5"/>
<path d="M24.9243 34.4463H23.6125C23.2502 34.4463 22.9565 34.74 22.9565 35.1022C22.9565 35.4644 23.2502 35.7581 23.6125 35.7581H24.9243C25.2865 35.7581 25.5802 35.4644 25.5802 35.1022C25.5802 34.74 25.2865 34.4463 24.9243 34.4463Z" fill="#1064E5" stroke="#1064E5" stroke-width="0.5"/>
</g>
<defs>
<clipPath id="clip0_36_494">
<rect width="42" height="42" fill="white"/>
</clipPath>
</defs>
</svg>
