<?xml version="1.0" encoding="utf-8"?><svg viewBox="0 0 92 34" xmlns="http://www.w3.org/2000/svg" xmlns:xlink="http://www.w3.org/1999/xlink"><style>:root>svg{display:none}:root>svg:target{display:block}</style><svg fill="none" viewBox="0 0 10 6" id="arrow" xmlns="http://www.w3.org/2000/svg"><path d="M1 1l4 4 4-4" stroke="#061224" stroke-width="1.5" stroke-linecap="round" stroke-linejoin="round"/></svg><svg fill="none" viewBox="0 0 18 14" id="burger" xmlns="http://www.w3.org/2000/svg"><path fill-rule="evenodd" clip-rule="evenodd" d="M0 1a1 1 0 011-1h16a1 1 0 110 2H1a1 1 0 01-1-1zm0 6a1 1 0 011-1h16a1 1 0 110 2H1a1 1 0 01-1-1zm0 6a1 1 0 011-1h16a1 1 0 110 2H1a1 1 0 01-1-1z" fill="#1064E5"/></svg><svg fill="none" viewBox="0 0 15 16" id="close" xmlns="http://www.w3.org/2000/svg"><path fill-rule="evenodd" clip-rule="evenodd" d="M.707 1.636a1 1 0 011.414 0l11.314 11.313a1 1 0 01-1.414 1.415L.707 3.05a1 1 0 010-1.414z" fill="#1064E5"/><path fill-rule="evenodd" clip-rule="evenodd" d="M13.436 1.636a1 1 0 00-1.415 0L.708 12.949a1 1 0 101.414 1.415L13.436 3.05a1 1 0 000-1.414z" fill="#1064E5"/></svg><svg viewBox="0 0 92 28" id="logo" xmlns="http://www.w3.org/2000/svg"><path d="M50.412 4.595c.535 0 .975.164 1.318.494.343.316.515.728.515 1.236s-.172.926-.515 1.256c-.343.33-.783.494-1.318.494-.522 0-.961-.165-1.318-.494-.343-.33-.515-.748-.515-1.256 0-.495.172-.907.515-1.236.357-.33.796-.494 1.318-.494zm-1.483 16.557V9.825h2.945v11.327h-2.945zM61.936 9.826h2.944v11.182c0 1.675-.507 3.014-1.523 4.016-1.016 1.016-2.376 1.524-4.078 1.524-1.469 0-2.746-.371-3.83-1.112-1.071-.742-1.71-1.82-1.915-3.233h3.047c.302 1.153 1.174 1.73 2.616 1.73 1.826 0 2.739-.948 2.739-2.843v-1.626c-.879 1.18-2.066 1.77-3.563 1.77-1.483 0-2.718-.549-3.707-1.647-.974-1.098-1.462-2.492-1.462-4.18 0-1.689.494-3.082 1.483-4.18.988-1.099 2.217-1.648 3.686-1.648 1.51 0 2.698.604 3.563 1.812V9.826zm-2.904 8.608c.838 0 1.53-.282 2.08-.844.55-.563.824-1.29.824-2.183 0-.879-.282-1.6-.845-2.162-.549-.577-1.235-.865-2.059-.865-.824 0-1.51.288-2.06.864-.535.563-.803 1.284-.803 2.163 0 .878.268 1.606.804 2.183.549.563 1.235.844 2.059.844zm-17.536-3.016c-1.057-.22-1.908-.44-2.553-.659a8.106 8.106 0 01-1.771-.844c-.536-.33-.913-.742-1.133-1.236-.233-.494-.35-1.091-.35-1.792 0-.796.172-1.503.515-2.12a3.554 3.554 0 011.338-1.4 6.782 6.782 0 011.75-.742 7.09 7.09 0 011.875-.247c1.963 0 3.46.46 4.49 1.38 1.015.933 1.612 2.1 1.79 3.5h-2.965c-.206-.741-.556-1.283-1.05-1.627-.508-.343-1.256-.515-2.245-.515-.823 0-1.448.145-1.874.433-.439.288-.659.693-.659 1.215 0 .33.124.59.371.783.233.205.522.356.865.452.343.097.954.24 1.833.433a.89.89 0 00.165.02.643.643 0 00.144.042l.165.041c.74.151 1.365.316 1.873.494a7.272 7.272 0 011.504.742 3.2 3.2 0 011.132 1.215c.247.494.371 1.084.371 1.77 0 1.428-.535 2.54-1.606 3.337-1.071.796-2.348 1.194-3.83 1.194-1.813 0-3.186-.419-4.12-1.256-.947-.824-1.51-1.895-1.688-3.213h2.986c.357 1.154 1.29 1.73 2.8 1.73.838 0 1.463-.158 1.875-.473.412-.302.618-.7.618-1.195 0-.398-.172-.686-.515-.865-.357-.178-1.057-.377-2.1-.597z" fill="currentColor"/><path fill-rule="evenodd" clip-rule="evenodd" d="M77.926 10.731c-.728-.796-1.73-1.194-3.007-1.194-1.452 0-2.6.563-3.446 1.688V9.82h-.075v-.036h-2.945v.036h-2.21v2.615h2.21v8.675h2.945v-5.95c0-1.881.851-2.821 2.554-2.821.755 0 1.297.192 1.626.576.33.385.495.961.495 1.73v6.466h2.945v-7.104c0-1.387-.364-2.479-1.092-3.275zm13.226-.906h-2.945v5.951c0 .92-.22 1.62-.659 2.1-.426.481-1.043.722-1.853.722-.742 0-1.277-.192-1.607-.577-.315-.384-.473-.96-.473-1.73V9.825H80.67v7.105c0 1.372.357 2.464 1.07 3.274.728.796 1.717 1.194 2.966 1.194 1.47 0 2.636-.604 3.501-1.812v1.851c0 .852-.197 1.47-.588 1.876-.39.404-.983.616-1.802.616-.647 0-1.153-.13-1.528-.377-.373-.247-.628-.618-.76-1.124l-.023-.087h-3.023l.02.133c.193 1.327.795 2.347 1.807 3.048 1.018.695 2.214 1.041 3.583 1.041 1.587 0 2.867-.474 3.825-1.433.959-.945 1.434-2.206 1.434-3.769V9.825z" fill="currentColor"/><path d="M0 6.946A6.946 6.946 0 016.946 0h14.108A6.946 6.946 0 0128 6.946v14.108A6.946 6.946 0 0121.054 28H6.946A6.946 6.946 0 010 21.054V6.946z" fill="#1064E5"/><path fill-rule="evenodd" clip-rule="evenodd" d="M21.747 22.035c-1.977 1.813-4.483 2.719-7.517 2.719-3.212 0-5.848-1.002-7.908-3.007-2.045-1.99-3.068-4.585-3.068-7.784 0-3.185.995-5.766 2.986-7.743 2.004-1.977 4.585-2.966 7.743-2.966 1.62 0 3.082.275 4.386.824l-.514 2.41c-1.099-.508-2.362-.762-3.79-.762-2.43 0-4.4.734-5.91 2.203C6.66 9.4 5.91 11.416 5.91 13.983c0 2.554.77 4.572 2.307 6.055 1.551 1.496 3.576 2.245 6.075 2.245 1.098 0 2.1-.158 3.007-.474a6.911 6.911 0 002.45-1.4c.728-.618 1.29-1.449 1.689-2.492a8.48 8.48 0 00.468-1.72c.126-1.182.203-2.376-.002-3.303-.11-.498-.277-.793-.452-.96-.149-.144-.41-.301-.966-.312-.985-.02-2.084.605-3.204 1.778-1.085 1.136-2 2.58-2.56 3.667a14.9 14.9 0 00-.37.773l-.057-.059v.001l-4.466-4.493 1.89-1.89 2.09 2.045a16.54 16.54 0 011.54-1.891c1.286-1.345 3.066-2.645 5.19-2.604 1.112.022 2.055.374 2.766 1.058.685.659 1.032 1.508 1.209 2.31.14.631.189 1.31.189 1.975h.01v.35c0 .8-.066 1.558-.197 2.272l-.003.03h-.002c-.38 2.054-1.302 3.751-2.764 5.091z" fill="#fff"/></svg><svg viewBox="0 0 29 34" id="play" xmlns="http://www.w3.org/2000/svg"><path d="M29 17L.5 33.455V.545L29 17z"/></svg></svg>